<?xml version="1.0" encoding="utf-8"?>
<!-- Generator: Adobe Illustrator 19.2.1, SVG Export Plug-In . SVG Version: 6.00 Build 0)  -->
<svg version="1.1" id="Capa_1" xmlns="http://www.w3.org/2000/svg" xmlns:xlink="http://www.w3.org/1999/xlink" x="0px" y="0px"
	 viewBox="0 0 223.9 196.2" style="enable-background:new 0 0 223.9 196.2;" xml:space="preserve">
<title>logo-login</title>
<desc>Created with Sketch.</desc>
<g>
	<path d="M223,110.3l-36.2-35.8v-72c0-1-0.1-1.9-1.1-2.3c-0.9-0.4-1.7-0.2-2.4,0.5l-34.7,34.8L113.9,0.7c-1-1-2.5-1-3.4,0L75.7,35.5
		L40.9,0.7c-0.7-0.7-2.2-0.9-3.1-0.5c-0.9,0.4-2,1.3-2,2.3v71.7L0.5,109.9C0,110.4,0,111,0,111.6s0.4,1.3,0.8,1.7l36.6,36.5
		c0.5,0.5,1.1,0.7,1.8,0.7c0.3,0,0.2-0.1,0.5-0.2c0.9-0.4,1.1-1.3,1.1-2.3V76.4l21.1-20.7l47.4,97.6c0.4,0.8,1.5,1.9,2.4,1.9l0,0
		c0.9,0,1.8-1,2.2-1.9l47.4-97.6l20.4,20.7v72c0,1,1.1,1.9,2,2.3c0.3,0.1,0.9,0.2,1.2,0.2c0.6,0,1.4-0.2,1.9-0.7l36.6-36.5
		c0.5-0.5,0.5-1.1,0.5-1.7C223.9,111.3,223.5,110.7,223,110.3z M176.5,14.7l-16,32.5l-8.3-8.3L176.5,14.7z M72.2,39l-8.5,8.5
		l-16-32.9L72.2,39z M35.8,142.2L5.2,111.6L35.8,81V142.2z M40.8,69.5V13.1l18.5,38L40.8,69.5z M111.7,146.2L66,52.1l11.4-11.4l0,0
		l0,0l34.8-34.8L147,40.7l0,0l0,0l11.2,11.2L111.7,146.2z M181.8,13v56.6l-18.7-18.7L181.8,13z M186.8,142.6V81.4l30.6,30.6
		L186.8,142.6z"/>
</g>
</svg>
